<?xml version="1.0" encoding="UTF-8"?>
<!-- Created with Inkscape (http://www.inkscape.org/) -->
<svg width="3936.2pt" height="2788.3pt" version="1.1" viewBox="0 0 3936.2 2788.3" xmlns="http://www.w3.org/2000/svg">
 <g transform="translate(-53.985 -567.4)">
  <g transform="matrix(100 0 0 100 -5344.5 -56172)">
   <path d="m63.609 571.99c1.2695 0.0117 2.3125-1.0039 2.3242-2.2734 0.01563-1.2695-1.0039-2.3086-2.2734-2.3242-1.2695-0.0156-2.3086 1.0039-2.3203 2.2734-0.01563 1.2656 1 2.3086 2.2695 2.3242" fill="#eb1923"/>
   <path d="m91.961 573.4c-0.75391-0.67187-2.207-1.9805-2.2344-2.0039-0.79687-0.66407-1.5625-1.3086-1.9961-1.6719-0.06641-0.0469-0.33203-0.26562-0.42578-0.32812-0.48438-0.3125-1.0664-0.4961-1.6875-0.4961-1.0039 0-1.8984 0.47657-2.4688 1.2109-1.0781 1.2344-4.5273 5.0781-4.5273 5.0781s-1.707 1.7578-4.3984-0.0547c0.05469 0-2.6289-1.6641-4.5781 0.7539-0.72266 1.1055-0.98047 2.3008-1.9023 2.2617-1.1328-0.043-1.2227-1.7266-1.5078-2.5742-0.35547-1.3555-1.5703-2.375-3.0391-2.4141-1.0469-0.0312-1.9844 0.4375-2.5977 1.1875-0.5625 0.60938-1.332 1.7383-2.8203 1.8945-0.85547 0.10547-1.6953 0.39453-2.1094 0.61328-0.98047 0.41798-1.668 1.3828-1.6836 2.5156-0.01563 1.5273 1.2109 2.7812 2.7383 2.7969 0.6875 8e-3 1.3125-0.23437 1.8047-0.64062 0.65625-0.55078 1.0977-0.83203 1.5586-1.0586 0-0.0547 1.707-0.79688 2.1289 1.0078 0.03516 0.10937 0.26562 1.0469 0.33594 1.3398 0.13281 0.83594 0.60156 3.0664 2.6641 3.4688 0.80078 0.14844 1.5859-0.0156 2.2227-0.44922-0.05469 0 0.89453-0.30468 2.0703-3.1055 0.22656-0.4375 0.9375-1.5156 2.3633-1.7226 0 0 1.4062-0.30078 3.0508 1 0.18359 0.14844 0.36328 0.30859 0.54688 0.46875l2.5156 2.1836 0.01172 0.0117c-0.0039-4e-3 -0.0078-8e-3 -0.01172-0.0117l2.3242 1.9961c0.83594 0.71484 1.9219 0.98828 2.8906 0.95312 0.92969-0.0391 1.7578-0.39062 2.375-1.1055l6.9375-8.0039c1.2461-1.4453 1.0234-3.6953-0.55078-5.1016" fill="#eb1923"/>
   <path d="m91.961 573.38c-0.68359-0.60547-1.3594-1.1992-2.0391-1.8047-0.10547-0.0937-0.17188-0.15234-0.19141-0.16797 0.04687 0.0469 0.09766 0.0899 0.14453 0.13672l0.01172 0.0117c0.01563 0.0195 0.03516 0.0391 0.05469 0.0586l0.02344 0.0195 0.02734 0.0351c0.01562 0.0156 0.03125 0.0312 0.04297 0.0469l0.01953 0.0195c0.01953 0.0195 0.03516 0.0391 0.05469 0.0625l0.0039 4e-3c0.60547 0.70704 0.9375 1.5664 0.96875 2.4102 0.02734 0.70313-0.16016 1.4375-0.57422 2.0156-0.01172 0.0195-0.02734 0.043-0.04297 0.0625l-7.0977 8.2305c-0.75 0.85938-1.8125 1.2188-2.9336 1.1211h-0.0039l-0.01563-4e-3h-0.0039c-0.47266-0.0391-0.96484-0.15625-1.4219-0.35156h-0.0039l-0.02734-0.0156c-0.10547-0.0469-0.21484-0.0977-0.31641-0.15234l-0.02734-0.0156-0.03125-0.0195-0.01172-4e-3 -0.03906-0.0234h-0.0039l-0.0078-8e-3h-0.0039c-0.1875-0.11328-0.35156-0.23438-0.53125-0.37891l2.3242 2.0469c0.83594 0.71875 1.9219 0.98828 2.8906 0.95312 0.92969-0.0351 1.8086-0.41406 2.4297-1.1328l6.9336-8.0273c1.25-1.4453 0.97266-3.7227-0.60156-5.1289" fill="#b52328"/>
   <path d="m63.957 590.64v3.3672c-0.17188 0.043-0.85547 0.20703-1.1875-0.17579l-1.9453-2.4297-0.25391-0.3125c-0.48047-0.5586-1.1094-0.61328-1.2539-0.6211-0.38281-0.0391-1.1445-0.0156-1.5625 0.35157-0.19141 0.16796-0.29688 0.39453-0.29688 0.63671v3.6211h1.0898v-3.4688c0.41016-0.10547 0.93359-0.125 1.1875 0.17578l1.1328 1.4141 1.0664 1.3281c0.48047 0.55859 1.1094 0.61328 1.2578 0.62109 0.38281 0.0391 1.1406 0.0156 1.5625-0.35156 0.19141-0.16797 0.29297-0.39453 0.29297-0.63672v-3.5195z" fill="#423f3f"/>
   <path d="m91.562 590.64v3.3672c-0.17578 0.043-0.85547 0.20703-1.1875-0.17579l-1.9453-2.4297-0.25391-0.3125c-0.48047-0.5586-1.1094-0.61328-1.2578-0.6211-0.38281-0.0391-1.1406-0.0156-1.5586 0.35157-0.19141 0.16796-0.29688 0.39453-0.29688 0.63671v3.6211h1.0898v-3.4688c0.41016-0.10547 0.93359-0.125 1.1875 0.17578l1.1328 1.4141 1.0664 1.3281c0.48047 0.55859 1.1094 0.61328 1.2539 0.62109 0.38281 0.0391 1.1445 0.0156 1.5625-0.35156 0.19141-0.16797 0.29688-0.39453 0.29688-0.63672v-3.5195z" fill="#423f3f"/>
   <path d="m54.68 595.07h1.0898v-4.4375h-1.0898z" fill="#423f3f"/>
   <path d="m82.285 595.07h1.0898v-4.4375h-1.0898z" fill="#423f3f"/>
   <path d="m80.352 590.57h-1.0898v3.5586c-0.09766 0.0312-0.24219 0.0586-0.44141 0.0586-0.38672-4e-3 -0.56641-0.0937-0.59766-0.16797-0.01563-0.043-1.0742-2.8633-1.0742-2.8633 0.0078 0.0156 0.01172 0.0352 0.01562 0.0508-0.14062-0.51953-0.62891-0.77734-1.457-0.76953h-0.03906c-0.75781-0.0156-1.2969 0.23437-1.4844 0.69531l-1.1133 2.9102c-0.02734 0.0508-0.20312 0.14062-0.60156 0.14453-0.19141 0-0.33984-0.0273-0.43359-0.0586v-3.5586h-1.0898v3.8086c0 0.0703 0.0039 0.14062 0.03125 0.20703 0.25 0.62109 1.1328 0.6914 1.4961 0.6914 1.0469-0.0156 1.4492-0.46093 1.6094-0.83593 0 0 0.79297-2.0586 1.0273-2.6719 0-8e-3 0.0039-8e-3 0.0078-0.0117 0.08594-0.21875 0.29687-0.375 0.54687-0.375 0.27344 0 0.49609 0.1836 0.56641 0.42969 0.16406 0.43359 0.48438 1.2852 0.48438 1.2852l0.49219 1.3242c0.0039 8e-3 0.0078 0.0156 0.0078 0.0234 0.16016 0.3711 0.56641 0.81641 1.5977 0.83203 0.37891 0 1.2578-0.0703 1.5078-0.6914 0.02734-0.0664 0.03125-0.13672 0.03125-0.20703z" fill="#423f3f"/>
  </g>
 </g>
</svg>
