<?xml version="1.0" encoding="utf-8"?>
<!-- Generator: Adobe Illustrator 22.1.0, SVG Export Plug-In . SVG Version: 6.00 Build 0)  -->
<svg version="1.1" id="Layer_1" xmlns="http://www.w3.org/2000/svg" xmlns:xlink="http://www.w3.org/1999/xlink" x="0px" y="0px"
	 viewBox="0 0 1000 436.7" style="enable-background:new 0 0 1000 436.7;" xml:space="preserve">
<style type="text/css">
	.st0{fill:#fffefd;}
	.st1{fill:url(#XMLID_2_);}
	.st2{fill:url(#XMLID_3_);}
	.st3{fill:url(#XMLID_4_);}
	.st4{fill:url(#XMLID_5_);}
	.st5{fill:url(#XMLID_6_);}
</style>
<g id="XMLID_251_">
	<g id="XMLID_263_">
		<path id="XMLID_282_" class="st0" d="M445.3,374.6v-83.8H462l19.9,59.4c1.8,5.5,3.2,9.7,4,12.4c1-3,2.4-7.5,4.5-13.4l20.1-58.3
			h14.9v83.8h-10.7v-70.2l-24.5,70.2h-10L456,303.3v71.4h-10.7V374.6z"/>
		<path id="XMLID_280_" class="st0" d="M543.4,374.6v-83.8H604v9.9h-49.5v25.6h46.4v9.9h-46.4v28.6H606v9.9h-62.6V374.6z"/>
		<path id="XMLID_275_" class="st0" d="M612.1,374.6l32.3-83.8h11.9l34.3,83.8H678l-9.8-25.4h-35.1l-9.2,25.4H612.1z M636.3,340.2
			h28.4l-8.8-23.2c-2.7-7.1-4.6-12.8-5.9-17.4c-1.1,5.4-2.6,10.7-4.5,16L636.3,340.2z"/>
		<path id="XMLID_273_" class="st0" d="M712,374.6v-73.9h-27.6v-9.9h66.4v9.9h-27.7v73.9H712z"/>
		<path id="XMLID_271_" class="st0" d="M801.6,374.6v-83.8h11.1v74H854v9.9h-52.4V374.6z"/>
		<path id="XMLID_269_" class="st0" d="M879.8,374.6v-73.9h-27.6v-9.9h66.4v9.9h-27.7v73.9H879.8z"/>
		<path id="XMLID_266_" class="st0" d="M930,374.6v-83.8h28.9c6.5,0,11.5,0.4,14.9,1.2c4.8,1.1,8.9,3.1,12.3,6
			c4.4,3.7,7.7,8.5,9.9,14.3s3.3,12.5,3.3,19.9c0,6.4-0.7,12-2.2,16.9s-3.4,9-5.7,12.2s-4.9,5.8-7.6,7.6c-2.8,1.8-6.1,3.3-10,4.2
			c-3.9,1-8.4,1.4-13.5,1.4L930,374.6L930,374.6z M941.1,364.8H959c5.5,0,9.9-0.5,13-1.5s5.7-2.5,7.5-4.3c2.6-2.6,4.7-6.2,6.1-10.6
			c1.5-4.4,2.2-9.8,2.2-16.2c0-8.8-1.4-15.5-4.3-20.2c-2.9-4.7-6.4-7.9-10.5-9.5c-3-1.1-7.8-1.7-14.4-1.7H941L941.1,364.8
			L941.1,364.8z"/>
		<path id="XMLID_264_" class="st0" d="M992.2,374.6v-6.8h6.8v6.8H992.2z"/>
	</g>
	<g id="XMLID_252_">
		<polygon id="XMLID_262_" class="st0" points="486.5,174.2 486.5,135.3 548.8,135.3 561.8,100.6 444.6,100.6 444.6,276.7 
			486.5,276.7 486.5,209 524.2,209 537.2,174.2 		"/>
		<g id="XMLID_253_">
			<path id="XMLID_259_" class="st0" d="M579.4,100.6h58.9l64.6,175.9h-45.1l-25.5-66.9l-20.5,35h-40.2l-12,32h-44.1L579.4,100.6z
				 M631.4,206.9l-23.9-66.5L584,206.9H631.4z"/>
			<path id="XMLID_257_" class="st0" d="M734.8,100.6V193c0,19.3-1.6,34.7,16.3,44.6c8.5,5.1,26.9,5.7,37.9-0.7
				c16.8-9.9,16.1-27.8,16.1-43.5v-92.9H847v100.7c0,26.4-2.1,52-30.1,67.8c-20.7,12-75.9,12-96.3-0.2c-29.2-17.2-27.6-46.2-27.6-71
				v-97.3h41.8V100.6z"/>
			<path id="XMLID_255_" class="st0" d="M1000,276.5h-41.8V100.6h41.8V276.5z"/>
			<path id="XMLID_254_" class="st0" d="M905.7,100.6v96.1c-0.5,10.1,1,24.2-9.4,35.2c-11.1,11.8-38.8,1.2-38.8,1.2l-21.7,37
				c44.4,15.5,76.9,5.9,92.7-9.2c16.6-16.1,19.1-37,19.1-55.2V100.6H905.7z"/>
		</g>
	</g>
</g>
<linearGradient id="XMLID_2_" gradientUnits="userSpaceOnUse" x1="233.2" y1="435.6" x2="233.2" y2="-1.1" gradientTransform="matrix(1 0 0 -1 0 435.6)">
	<stop  offset="1.757813e-02" style="stop-color:#E9C002"/>
	<stop  offset="0.5027" style="stop-color:#DEB804"/>
	<stop  offset="0.9129" style="stop-color:#CE9112"/>
</linearGradient>
<polygon id="XMLID_245_" class="st1" points="238.5,33.4 209.8,4.7 205.1,0 205.1,436.7 209.8,432 238.5,403.3 261.3,380.5 
	261.3,307.7 261.3,285.8 261.3,213 261.3,167.6 261.3,56.2 "/>
<linearGradient id="XMLID_3_" gradientUnits="userSpaceOnUse" x1="171" y1="435.6" x2="171" y2="-1.1" gradientTransform="matrix(1 0 0 -1 0 435.6)">
	<stop  offset="1.757813e-02" style="stop-color:#E9C002"/>
	<stop  offset="0.5027" style="stop-color:#DEB804"/>
	<stop  offset="0.9129" style="stop-color:#CE9112"/>
</linearGradient>
<polygon id="XMLID_244_" class="st2" points="199.1,0 194.4,4.7 165.7,33.4 142.9,56.2 142.9,167.6 142.9,189.5 142.9,262.3 
	142.9,307.7 142.9,380.5 165.7,403.3 194.4,432 199.1,436.7 "/>
<g id="XMLID_241_">
	
		<linearGradient id="XMLID_4_" gradientUnits="userSpaceOnUse" x1="356.8" y1="123.95" x2="267.1" y2="123.95" gradientTransform="matrix(1 0 0 -1 0 435.6)">
		<stop  offset="1.757813e-02" style="stop-color:#E9C002"/>
		<stop  offset="0.6696" style="stop-color:#DEB804"/>
		<stop  offset="1" style="stop-color:#CE9112"/>
	</linearGradient>
	<polygon id="XMLID_243_" class="st3" points="267.1,301.9 267.1,374.7 356.8,285 320.4,248.6 	"/>
	
		<linearGradient id="XMLID_5_" gradientUnits="userSpaceOnUse" x1="404.2" y1="245.3" x2="267.1" y2="245.3" gradientTransform="matrix(1 0 0 -1 0 435.6)">
		<stop  offset="1.757813e-02" style="stop-color:#E9C002"/>
		<stop  offset="0.6696" style="stop-color:#DEB804"/>
		<stop  offset="1" style="stop-color:#CE9112"/>
	</linearGradient>
	<polygon id="XMLID_242_" class="st4" points="367.8,201.2 267.1,100.6 267.1,173.4 284,190.3 267.1,207.2 267.1,280 320.4,226.7 
		320.4,226.7 331.4,237.6 331.4,237.6 367.8,274.1 367.8,274.1 404.2,237.6 	"/>
</g>
<linearGradient id="XMLID_6_" gradientUnits="userSpaceOnUse" x1="0" y1="197.95" x2="137.1" y2="197.95" gradientTransform="matrix(1 0 0 -1 0 435.6)">
	<stop  offset="1.757813e-02" style="stop-color:#E9C002"/>
	<stop  offset="0.6696" style="stop-color:#DEB804"/>
	<stop  offset="1" style="stop-color:#CE9112"/>
</linearGradient>
<polygon id="XMLID_240_" class="st5" points="137.1,301.9 120.2,285 137.1,268.1 137.1,195.2 83.8,248.6 72.8,237.6 137.1,173.4 
	137.1,100.6 36.4,201.2 0,237.6 36.4,274.1 137.1,374.7 "/>
</svg>
