<svg width="102" height="45" viewBox="0 0 102 45" fill="none" xmlns="http://www.w3.org/2000/svg">
<g clip-path="url(#clip0_1285_1826)">
<path d="M45.6881 12.7015C44.9364 11.9379 44.0184 11.331 42.9342 10.881C41.8482 10.4311 40.6231 10.2061 39.2572 10.2061C37.8913 10.2061 36.6645 10.4311 35.5802 10.881C34.4942 11.331 33.5763 11.9379 32.8246 12.7015C32.0729 13.4651 31.496 14.3583 31.0955 15.3759C30.6934 16.3952 30.4932 17.4741 30.4932 18.6128C30.4932 19.7514 30.6934 20.8525 31.0955 21.8718C31.496 22.8911 32.0729 23.7826 32.8246 24.5462C33.5763 25.3098 34.4942 25.9132 35.5802 26.3564C36.6645 26.7979 37.8913 27.0195 39.2572 27.0195C40.6231 27.0195 41.8499 26.7979 42.9342 26.3564C44.0184 25.9149 44.9364 25.3115 45.6881 24.5462C46.4398 23.7826 47.0167 22.8911 47.4172 21.8718C47.8176 20.8525 48.0195 19.7667 48.0195 18.6128C48.0195 17.4588 47.8193 16.3952 47.4172 15.3759C47.015 14.3566 46.4398 13.4651 45.6881 12.7015ZM44.4969 20.861C44.2831 21.5957 43.954 22.2502 43.5111 22.8281C43.0665 23.4042 42.4896 23.8661 41.782 24.2104C41.0728 24.5547 40.2312 24.7269 39.2572 24.7269C38.2832 24.7269 37.4416 24.5547 36.7323 24.2104C36.0231 23.8661 35.4462 23.4059 35.0033 22.8281C34.5587 22.2519 34.2295 21.5957 34.0174 20.861C33.8036 20.1264 33.6967 19.3781 33.6967 18.6128C33.6967 17.8474 33.8036 17.0991 34.0174 16.3645C34.2312 15.6298 34.5604 14.9753 35.0033 14.3975C35.4478 13.8213 36.0248 13.3594 36.7323 13.0151C37.4416 12.6708 38.2832 12.4986 39.2572 12.4986C40.2312 12.4986 41.0728 12.6708 41.782 13.0151C42.4913 13.3594 43.0665 13.8213 43.5111 14.3975C43.9557 14.9753 44.2831 15.6298 44.4969 16.3645C44.7107 17.0991 44.8176 17.8474 44.8176 18.6128C44.8176 19.3781 44.7107 20.1264 44.4969 20.861Z" fill="white"/>
<path d="M65.1642 12.7015C64.4125 11.9379 63.4945 11.331 62.4103 10.881C61.3243 10.4311 60.0992 10.2061 58.7333 10.2061C57.3673 10.2061 56.1405 10.4311 55.0563 10.881C53.9703 11.331 53.0523 11.9379 52.3007 12.7015C51.549 13.4651 50.9721 14.3583 50.5716 15.3759C50.1695 16.3952 49.9692 17.4741 49.9692 18.6128C49.9692 19.7514 50.1695 20.8525 50.5716 21.8718C50.9721 22.8911 51.549 23.7826 52.3007 24.5462C53.0523 25.3098 53.9703 25.9132 55.0563 26.3564C56.1405 26.7979 57.3673 27.0195 58.7333 27.0195C60.0992 27.0195 61.326 26.7979 62.4103 26.3564C63.4945 25.9149 64.4125 25.3115 65.1642 24.5462C65.9159 23.7826 66.4928 22.8911 66.8932 21.8718C67.2954 20.8525 67.4956 19.7667 67.4956 18.6128C67.4956 17.4588 67.2954 16.3952 66.8932 15.3759C66.4911 14.3566 65.9159 13.4651 65.1642 12.7015ZM63.973 20.861C63.7592 21.5957 63.43 22.2502 62.9872 22.8281C62.5426 23.4042 61.9657 23.8661 61.2581 24.2104C60.5489 24.5547 59.7072 24.7269 58.7333 24.7269C57.7593 24.7269 56.9177 24.5547 56.2084 24.2104C55.4991 23.8661 54.9222 23.4059 54.4794 22.8281C54.0348 22.2519 53.7056 21.5957 53.4935 20.861C53.2797 20.1264 53.1728 19.3781 53.1728 18.6128C53.1728 17.8474 53.2797 17.0991 53.4935 16.3645C53.7073 15.6298 54.0365 14.9753 54.4794 14.3975C54.9239 13.8213 55.5008 13.3594 56.2084 13.0151C56.9177 12.6708 57.7593 12.4986 58.7333 12.4986C59.7072 12.4986 60.5489 12.6708 61.2581 13.0151C61.9674 13.3594 62.5426 13.8213 62.9872 14.3975C63.4317 14.9753 63.7592 15.6298 63.973 16.3645C64.1868 17.0991 64.2937 17.8474 64.2937 18.6128C64.2937 19.3781 64.1868 20.1264 63.973 20.861Z" fill="white"/>
<path d="M84.8947 22.4124C84.8947 21.7834 84.8047 21.2585 84.6266 20.8391C84.4467 20.4198 84.221 20.0789 83.9478 19.8164C83.6747 19.5539 83.3794 19.363 83.0638 19.2437C82.7482 19.1244 82.453 19.0494 82.1798 19.0187V18.9744C82.3342 18.9301 82.5768 18.8397 82.9094 18.7051C83.242 18.5704 83.5796 18.3488 83.9224 18.042C84.2635 17.7352 84.5638 17.3312 84.82 16.8284C85.0762 16.3273 85.2035 15.6932 85.2035 14.9296C85.2035 13.5659 84.6995 12.5023 83.6916 11.737C82.6837 10.9734 81.1719 10.5898 79.1561 10.5898H70.4175V26.6396H73.6211V20.0312H78.3365C79.0712 20.0312 79.6736 20.113 80.1436 20.2784C80.6136 20.4437 80.9852 20.7011 81.2584 21.0539C81.5316 21.4067 81.7199 21.8482 81.8217 22.38C81.9236 22.9118 81.9762 23.5459 81.9762 24.2789C81.9762 24.6692 81.9965 25.0732 82.0406 25.4925C82.0831 25.9118 82.2239 26.2936 82.4631 26.6396H85.8975C85.5547 26.3107 85.3036 25.7601 85.1407 24.988C84.9778 24.2158 84.8981 23.3584 84.8981 22.4141L84.8947 22.4124ZM81.2041 17.2545C80.6747 17.6824 79.8976 17.8954 78.8727 17.8954H73.6194V12.8824H78.8218C79.2324 12.8824 79.6295 12.9131 80.0129 12.9728C80.3981 13.0324 80.7392 13.1517 81.0378 13.3324C81.3365 13.5114 81.5723 13.7637 81.742 14.0858C81.9134 14.408 81.9982 14.8239 81.9982 15.3335C81.9982 16.1875 81.7335 16.8284 81.2041 17.2545Z" fill="white"/>
<path d="M91.6599 24.2107V19.513H100.885V17.2204H91.6599V13.0171H101.629V10.5898H88.458V26.6379H101.809V24.2107H91.6599Z" fill="white"/>
<path d="M27.8514 8.11642L13.9206 20.0464L5.88281 13.1584L13.9206 25.1054L24.1117 16.3237V21.485V27.369H27.8463L27.8514 22.2827L27.8633 8.10449L27.8514 8.11983V8.11642Z" fill="white"/>
<path d="M13.9393 11.868L0 0.059082V27.3741H3.73468V8.12148L13.9325 16.9663L27.8871 0.059082L13.9393 11.868Z" fill="#E1261C"/>
<path d="M42.8038 37.1392L42.1997 38.8658H43.4197L42.8207 37.1392H42.8038Z" fill="white"/>
<path d="M83.9054 37.02H82.7686V38.2745H83.9173C84.3602 38.2745 84.6011 38.0547 84.6011 37.6336C84.6011 37.1223 84.2702 37.02 83.9071 37.02H83.9054Z" fill="white"/>
<path d="M21.1065 36.9243C20.2496 36.9243 19.8916 37.6845 19.8916 38.455C19.8916 39.2254 20.2496 39.9856 21.1065 39.9856C21.9634 39.9856 22.3214 39.2254 22.3214 38.455C22.3214 37.6845 21.9634 36.9243 21.1065 36.9243Z" fill="white"/>
<path d="M6.5397 37.02H5.40283V38.2745H6.55157C6.99444 38.2745 7.23539 38.0547 7.23539 37.6336C7.23539 37.1223 6.90451 37.02 6.54139 37.02H6.5397Z" fill="white"/>
<path d="M50.6006 37.1392L49.9966 38.8658H51.2166L50.6176 37.1392H50.6006Z" fill="white"/>
<path d="M17.443 37.02H16.4062V38.3478H17.4311C17.745 38.3478 18.1319 38.191 18.1319 37.6848C18.1319 37.1785 17.8129 37.0217 17.443 37.0217V37.02Z" fill="white"/>
<path d="M87.6759 36.9243C86.819 36.9243 86.4609 37.6845 86.4609 38.455C86.4609 39.2254 86.819 39.9856 87.6759 39.9856C88.5327 39.9856 88.8908 39.2254 88.8908 38.455C88.8908 37.6845 88.5327 36.9243 87.6759 36.9243Z" fill="white"/>
<path d="M0 32.3276V44.2593H101.809V32.3276H0ZM7.33531 40.4633C7.22841 40.2895 7.22841 40.0696 7.22841 39.8719C7.22841 39.1355 7.0774 38.8082 6.43261 38.8082H5.40265V40.4616H4.70186V36.4441H6.61077C7.48463 36.4441 7.93259 36.8497 7.93259 37.5298C7.93259 38.3003 7.39979 38.498 7.27253 38.5423V38.5543C7.51348 38.5884 7.86641 38.7673 7.86641 39.4031C7.86641 39.8702 7.93429 40.298 8.0853 40.4616H7.33531V40.4633ZM11.5621 40.4633H8.64355V36.4458H11.5213V37.0526H9.34264V38.1043H11.3585V38.6787H9.34264V39.8548H11.5604V40.4616L11.5621 40.4633ZM13.5236 40.5588C12.6107 40.5588 11.8709 40.1207 11.8556 39.1236H12.5547C12.5547 39.7423 13.0078 39.9844 13.5677 39.9844C14.1836 39.9844 14.4127 39.681 14.4127 39.3775C14.4127 39.0741 14.2447 38.9446 14.0818 38.8832C13.8019 38.7759 13.437 38.7026 12.889 38.5509C12.2052 38.3651 12.0049 37.9492 12.0049 37.5333C12.0049 36.7287 12.7447 36.352 13.4659 36.352C14.3007 36.352 14.9998 36.7969 14.9998 37.6355H14.3007C14.2668 37.1173 13.9206 36.9264 13.4387 36.9264C13.1146 36.9264 12.7057 37.0441 12.7057 37.4497C12.7057 37.731 12.8958 37.8878 13.1808 37.9679C13.2419 37.9849 14.1276 38.2151 14.3347 38.2781C14.8607 38.4349 15.1135 38.8849 15.1135 39.3025C15.1135 40.2025 14.3177 40.5622 13.5236 40.5622V40.5588ZM17.4721 38.9224H16.4082V40.4633H15.7091V36.4458H17.4738C18.6157 36.4458 18.8346 37.1889 18.8346 37.6884C18.8346 38.1878 18.6157 38.9258 17.4738 38.9207L17.4721 38.9224ZM21.1066 40.5588C19.9087 40.5588 19.1909 39.6025 19.1909 38.4554C19.1909 37.3083 19.907 36.352 21.1066 36.352C22.3063 36.352 23.0223 37.3083 23.0223 38.4554C23.0223 39.6025 22.3063 40.5588 21.1066 40.5588ZM26.8622 40.4633H26.1224L24.3017 37.5094H24.2848V40.4633H23.6179V36.4458H24.3577L26.1835 39.4048H26.1954V36.4458H26.8622V40.4633ZM29.1037 40.5588C28.1908 40.5588 27.451 40.1207 27.4357 39.1236H28.1348C28.1348 39.7423 28.5879 39.9844 29.1478 39.9844C29.7638 39.9844 29.9928 39.681 29.9928 39.3775C29.9928 39.0741 29.8248 38.9446 29.6619 38.8832C29.382 38.7759 29.0172 38.7026 28.4691 38.5509C27.7853 38.3651 27.5851 37.9492 27.5851 37.5333C27.5851 36.7287 28.3249 36.352 29.046 36.352C29.8808 36.352 30.5799 36.7969 30.5799 37.6355H29.8808C29.8469 37.1173 29.5008 36.9264 29.0189 36.9264C28.6948 36.9264 28.2858 37.0441 28.2858 37.4497C28.2858 37.731 28.4759 37.8878 28.7609 37.9679C28.822 37.9849 29.7078 38.2151 29.9148 38.2781C30.4408 38.4349 30.6936 38.8849 30.6936 39.3025C30.6936 40.2025 29.8978 40.5622 29.1037 40.5622V40.5588ZM34.206 40.4633H31.2875V36.4458H34.1653V37.0526H31.9866V38.1043H34.0024V38.6787H31.9866V39.8548H34.2043V40.4616L34.206 40.4633ZM40.5334 40.4633H39.8666V37.3628H39.8547L38.7467 40.4633H38.1698L37.0617 37.3628H37.0499V40.4633H36.383V36.4458H37.3689L38.4718 39.5906H38.4837L39.5594 36.4458H40.5334V40.4633ZM43.9813 40.4633L43.6063 39.3997H42.0096L41.6346 40.4633H40.9118L42.4457 36.4458H43.1906L44.7313 40.4633H43.9813ZM48.337 40.4633H47.5972L45.7766 37.5094H45.7596V40.4633H45.0927V36.4458H45.8326L47.6583 39.4048H47.6702V36.4458H48.337V40.4633ZM51.7765 40.4633L51.4015 39.3997H49.8048L49.4298 40.4633H48.707L50.2409 36.4458H50.9858L52.5265 40.4633H51.7765ZM56.2069 40.4633H55.7589L55.652 39.9912C55.277 40.419 54.9359 40.5588 54.4473 40.5588C53.2493 40.5588 52.5316 39.6025 52.5316 38.4554C52.5316 37.3083 53.2476 36.352 54.4473 36.352C55.3211 36.352 56.0541 36.8191 56.161 37.7242H55.4772C55.4094 37.1958 54.9512 36.9247 54.4473 36.9247C53.5904 36.9247 53.2323 37.685 53.2323 38.4554C53.2323 39.2258 53.5904 39.9861 54.4473 39.9861C55.1633 39.998 55.5553 39.5633 55.5672 38.8832H54.5033V38.348H56.2052V40.4633H56.2069ZM59.872 40.4633H56.9534V36.4458H59.8312V37.0526H57.6525V38.1043H59.6683V38.6787H57.6525V39.8548H59.8703V40.4616L59.872 40.4633ZM64.5993 40.4633H63.9324V37.3628H63.9206L62.8108 40.4633H62.2339L61.1242 37.3628H61.1123V40.4633H60.4455V36.4458H61.4313L62.5343 39.5906H62.5461L63.6219 36.4458H64.5959V40.4633H64.5993ZM68.3289 40.4633H65.4104V36.4458H68.2881V37.0526H66.1094V38.1043H68.1253V38.6787H66.1094V39.8548H68.3272V40.4616L68.3289 40.4633ZM72.1399 40.4633H71.4001L69.5794 37.5094H69.5625V40.4633H68.8956V36.4458H69.6354L71.4612 39.4048H71.4731V36.4458H72.1399V40.4633ZM75.7864 37.0543H74.5154V40.4633H73.8147V37.0543H72.5488V36.4475H75.7864V37.0543ZM81.318 40.4633H80.87L80.7631 39.9912C80.3881 40.419 80.047 40.5588 79.5584 40.5588C78.3604 40.5588 77.6427 39.6025 77.6427 38.4554C77.6427 37.3083 78.3587 36.352 79.5584 36.352C80.4322 36.352 81.1652 36.8191 81.2721 37.7242H80.5883C80.5205 37.1958 80.0623 36.9247 79.5584 36.9247C78.7015 36.9247 78.3434 37.685 78.3434 38.4554C78.3434 39.2258 78.7015 39.9861 79.5584 39.9861C80.2744 39.998 80.6681 39.5633 80.6783 38.8832H79.6144V38.348H81.3163V40.4633H81.318ZM84.698 40.4633C84.5911 40.2895 84.5911 40.0696 84.5911 39.8719C84.5911 39.1355 84.4401 38.8082 83.7953 38.8082H82.7653V40.4616H82.0662V36.4441H83.9752C84.849 36.4441 85.297 36.8497 85.297 37.5298C85.297 38.3003 84.7642 38.498 84.6369 38.5423V38.5543C84.8779 38.5884 85.2308 38.7673 85.2308 39.4031C85.2308 39.8702 85.2987 40.298 85.4497 40.4616H84.6997L84.698 40.4633ZM87.6742 40.5588C86.4763 40.5588 85.7585 39.6025 85.7585 38.4554C85.7585 37.3083 86.4746 36.352 87.6742 36.352C88.8739 36.352 89.5899 37.3083 89.5899 38.4554C89.5899 39.6025 88.8739 40.5588 87.6742 40.5588ZM93.4366 39.0179C93.4366 40.0474 92.7816 40.5588 91.7958 40.5588C90.8099 40.5588 90.1549 40.0474 90.1549 39.0179V36.4475H90.8557V38.7878C90.8557 39.3281 90.8897 39.952 91.7958 39.952C92.7019 39.952 92.7358 39.3281 92.7358 38.7878V36.4475H93.4349V39.0179H93.4366ZM95.9835 38.9224H94.9196V40.4633H94.2205V36.4458H95.9852C97.1271 36.4458 97.346 37.1889 97.346 37.6884C97.346 38.1878 97.1271 38.9258 95.9852 38.9207L95.9835 38.9224Z" fill="white"/>
<path d="M95.9581 37.02H94.9214V38.3478H95.9463C96.2602 38.3478 96.6471 38.191 96.6471 37.6848C96.6471 37.1785 96.3281 37.0217 95.9581 37.0217V37.02Z" fill="white"/>
</g>
<defs>
<clipPath id="clip0_1285_1826">
<rect width="101.809" height="44.2" fill="white" transform="translate(0 0.059082)"/>
</clipPath>
</defs>
</svg>
